<?xml version="1.0" encoding="UTF-8"?>
<svg id="Layer_1" xmlns="http://www.w3.org/2000/svg" viewBox="0 0 1719.75 743.61"><defs><style>.cls-1{fill:#e8bfc2;}</style></defs><path class="cls-1" d="M1047.74,235.12c-.02,47.92-1.73,95.93.56,143.74,1.6,33.35-11.2,46.06-43.34,41.88-4.56-.29-9.13-.31-13.69-.06-84.05-.81-82.12,8.83-82.12-38.89,0-8.66,1.15-44.29,1.54-56.41,1.6-49.74-16.5-42.48-62.6-42.48-43.26,0-86.77,1.83-130.12.4-27.69-.91-39.23,2.23-39.23,24.57,0,4.52-1.03,22.14-1.41,26.68-2.25,26.66-1.65,60.63-1.65,72.03,0,10.63-7.6,14.37-28.87,14.37h-87.51c-20.4,0-18.81-23.11-19.01-34.47-1.76-100.37-.45-200.8-1.39-301.19-.26-27.69,12.44-36.16,37.41-34.17,9.08.72,18.27-.05,27.4.07,85.17,1.13,72.62-7.48,73.63,72.51q.79,62.33,63.79,62.91c15.99.14,129.14-.06,145.11-.06,23,0,23.86-12.82,23.86-35.2,0-17.42.86-52,.86-67.7s8.06-32.45,20.12-32.45h79.75c43.85,0,36.89,11.84,36.91,94.93,0,29.66-.01,59.32-.03,88.99Z"/><path class="cls-1" d="M1719.17,240.67c-.01,47.91-.85,95.84.32,143.71.62,25.44-7.45,38.84-34.84,36.38-11.32-1.02-22.82-.07-34.24-.07q-69.17,0-69.44-70.32c-.12-36.5.25-73.01-.29-109.5-.08-5.49-.84-17.4-1.83-27.3-.23-2.34-1.89-4.29-4.16-4.88-2.27-.6-4.68.27-6.03,2.19-6.12,8.58-12.4,19.5-15.61,25.1-28.32,49.4-54.37,100.1-83.08,149.27-30.68,52.52-77.54,51.91-107.93-1-29.49-51.35-57.32-103.64-86.28-155.3-1.98-3.54-8.62-13.28-14.28-21.01-1.29-1.76-3.55-2.5-5.62-1.82s-3.48,2.6-3.48,4.78c-.06,9.26.99,20.35.9,24.84-.87,45.61-2.92,91.41.22,136.82,2.79,40.2-13.45,50.04-50.9,48.8-105.86-3.47-84.65,9.66-86.23-87.73-1.29-79.83.93-159.71-.8-239.52-.69-31.89,8.98-42.38,42.19-43.81,145.03-6.25,144.55-7.21,213.7,119.75,11.19,20.55,24.85,51.23,38.27,76.21,5.42,10.09,14.03,20.06,24.91-.75,12.34-23.62,22.62-53.55,33.88-71.95,2.37-3.89,4.2-8.1,6.4-12.1,65.84-119.8,65.78-118.82,205.55-111.05,29.49,1.64,40.29,10.03,39.23,39.7-1.8,50.13-.49,100.37-.51,150.56Z"/><g id="vVi6t9"><path class="cls-1" d="M1308.12,683.91c-.65-.69-9.8,4.75-13.09,5.17-8.06,1.03-26.07.82-32.83-3.59-2.61-1.71-2.45-4.95-3.78-5.14-10.76-1.58-14.28,3.7-22.85,6.65-45.87,15.8-91.8,1.35-92.62-52.64-.03-2.09,1.29-6.49-1.73-6.08-13.76,31.07-20.64,66.57-33.42,97.84-3.93,9.61-6.46,15.37-17.92,16.85-7.05.91-25.74.89-32.63-.31-8.03-1.4-11.27-6.61-14.28-13.54l-49.19-143.79c-.85-6.02-1.68-11.13,4.34-14.09,5.9-2.91,25.58-2.93,32.64-2.03,6.81.86,12.41,5.05,14.44,11.64l26.57,85.57c2.41.03,5.35.49,7.63.17,1.18-.16,2.69-9.49,3.52-12.28,6.78-22.97,14.82-53.74,23.91-75.19.66-1.56,1.11-3.46,2.21-4.74,5.25-6.16,25.2-5.9,33.11-5.28,1.66.13,10.62,1.62,11.05,1.98.37.31,3.42,8.07,3.34,9.05-.89,11.09-11.09,22.08-8.37,34.24,5.28-3.14,7.01-9.28,12.22-12.99,10.67-7.59,28.04-12.52,40.9-14.74,12.87-2.22,33.59-1.92,44.77-7.39,7.83-3.83,8.09-14.77,5.63-22.34-3.6-11.05-33.07-10.77-41.46-6.54-8.85,4.47-9.16,14.86-14.15,18.88-6.34,5.1-37.3,5.07-43.65-.01-7.91-6.34,4.44-27.72,9.62-34.01,24.08-29.21,99.73-31.77,127.83-7.82,7.78,6.63,14.65,19.1,14.76,29.58.48.59,3.47-2.23,3.47-2.61v-39.99c0-.62,3.13-7,4.24-7.93,6.05-5.05,37.56-5.08,43.67,0,2.54,2.11,3.99,7.97,4.31,11.33l-.43,210.07c-1.53,7.26-5.14,11.05-12.61,11.73-7.54.69-29.58,1.03-34.94-3.44-1.11-.93-4.24-7.31-4.24-7.93,0-6.29,1.52-42.72,0-44.33ZM1236.37,613.02c-5.74.72-15.45,2.22-20.92,3.42-6.49,1.41-19.36,7.35-20.37,14.41-1.71,12.01,1.39,23.49,14.86,25.19,18.47,2.34,37.1.11,42.2-20.29.88-3.53,2.7-15.66,1.85-18.55-1.85-6.27-12.31-4.84-17.62-4.17Z"/><path class="cls-1" d="M527.51,530.91c9.74-7.52,16.64-17.58,27.23-24.06,55.19-33.74,121.93,2.03,129.17,64.98,1.63,14.18,1.85,25.35-14.64,26.95l-97.46-.1c-11.91,1.69-3.64,22.12,1.81,27.81,10.74,11.2,35.01,11.12,48.27,4.89,11.89-5.59,10.35-16.04,26.83-18.37,5.86-.83,26.14-.77,28.11,5.89,2.76,9.34-7.65,24.08-13.69,31.13-32.84,38.35-108.38,31.48-135.39-10.7-4.57-7.14-6.95-17.32-10.88-23.89-1-1.66-3.75-4.2-5.01-2.81-1.13,1.25,2.9,14.88-5.24,19.97-1.79,1.12-4.44,1.31-6.42,2.27l-77.91.33c-4.45.92-5.79,3.64-6.13,7.78-1.92,23.34,2.35,50.02.14,73.16-.27,2.79-1.57,8.59-3.5,10.41-6.62,6.26-43.89,6.26-50.51,0-1.93-1.82-3.23-7.62-3.5-10.41v-207.03c.86-5.98,1.93-10.44,7.51-13.35,6.69-3.48,8.15-1.26,14.23-1.29,46.08-.19,92.44-.66,138.37.7,3.59.66,8.6,7.63,8.6,10.52v25.21ZM589.58,534.74c-7.31,1.23-20.93,10.12-22.1,17.87-.4,2.66-.61,9.01,1.68,10.54,5.21,3.47,44.06-1.02,53.16.85,7.32,1.38,7.22-9.71,5.79-14.6-.39-1.34-8.57-9.5-10.24-10.62-7.34-4.92-19.75-5.48-28.29-4.04ZM416.24,545.69v39.99c0,.31,4.04,4.35,4.35,4.35h81.71c.33,0,5.77,2.25,6.17,2.52,2.8,1.91,0,6.52,3.39,6.17-1.84-19.63,4.24-37.24,9.6-55.62.56-1.92-1.16-3.46-1.77-3.47-1-.02-7.57,4.42-10.37,3.53l-88.78-.12c-1.49-.13-4.01,1.55-4.3,2.66Z"/><path class="cls-1" d="M754.71,559.11c2.07-.09,4.13,1.34,6.57,1.43,21.7.81,44.04,5.54,58.33,23.37,5.14,6.41,16.69,26.22,7.62,32.01-8.63,5.52-33.75,5.63-41.61-1.5-4.48-4.06-5.03-11.63-12.45-15.37-6.65-3.35-34.12-4.36-37.95,3.09-1.44,2.8-1.46,11.15,0,14,4.48,8.73,47.23,14.81,58.33,18.17,33.53,10.12,52.43,33.02,39.12,68.76-18.31,49.19-121,49.88-146.71,7.54-4.28-7.06-11.38-22.36-5.56-29.42,5.32-6.45,34.25-5.66,41.03-.83,5.8,4.14,6.24,13.31,13.03,18.27,10.51,7.68,41.43,10.08,47.79-2.51,1.5-2.97,1.45-14.64,0-17.47-2-3.91-21.65-9.89-26.95-11.3-23.43-6.25-59.38-8.29-70.49-33.83-10.46-24.04.05-50.38,22.3-62.96,13.14-7.43,32.79-10.77,47.6-11.45Z"/><path class="cls-1" d="M859.06,496.5c6.69-1.15,32.18-1.33,37.09,2.18,6.08,4.34,2.21,31.93,3.37,40.09,1.25,8.76,11.95,5.31,18.24,6.1,7.52.95,13.15,3.93,14.46,11.61,2.35,13.79,1.14,24.58-14.46,26.54-7.04.89-16.01-2.94-18.24,6.1l-.04,74.86c2.1,21.73,19.79,10.29,29.66,17.28,1.71,1.21,5.17,10.16,5.15,12.19-.03,2.01-1.74,4.18-1.84,6.98-.07,2.09,1.32,3.9,1.06,6.15-.92,8.03-6.71,12.18-14.31,13.47-13.3,2.26-38.26-.29-50.44-6.24-15.16-7.4-18.81-22.26-21.43-37.68l-.09-90.31c-1.2-4.19-8.54-2.36-12.53-3.12-14.51-2.77-18.39-16.68-12.53-29.22,2.46-5.25,6.84-7.25,12.53-8.33,5.17-.99,11.87,1.77,12.74-4.64,1.85-13.61-6.72-40.87,11.61-44.02Z"/><path class="cls-1" d="M947.73,524.32c6.25-1.08,34.68-1.55,37.96,3.05,1.24,1.73,1.51,5.72,2.49,7.95-3.31,46.83,4.57,100,.12,146.06-.68,7.07-3.64,13.63-11.39,14.69-6.82.93-28.83.77-34.46-2.01-4.11-2.03-4.84-8.69-6.33-12.79v-144.2c1.43-7.43,3.77-11.38,11.61-12.73Z"/><path class="cls-1" d="M947.73,459.99c7.46-1.28,32.44-1.75,37.12,3.88,4.95,5.95,5.48,30.77-.87,35.84-6.36,5.08-39.33,5.4-44.53-.87-5.21-6.27-4.64-29.9.92-35.79,1.29-1.37,5.44-2.74,7.36-3.07Z"/></g><path class="cls-1" d="M350.1,345.37c.38,2.15,1.06,4.24,2.65,5.85,2.59,2.62,6.79,3.13,10.61,3.42,23.62,1.79,46.96,1.16,70.59,3.23,12.44,1.26,21.85,2.18,27.58,9.84,7.65,12.53,6.33,29.47,6.06,43.12-1.15,11.7-5.96,18.35-17.93,20.25-47.93,3.18-96.96-.24-145.18-.15-24.03.19-38.18-7.76-41.06-30.82-4.58-35.63-4.86-71.53-8.69-107.24-1.11-10.41-1.53-23.68,8.15-30.33,9.7-6.67,24.2-8.9,34.59-15.22,20.68-12.57,30.93-36.9,27.41-59.68-3.52-22.78-19.7-43.46-41.05-56.16-21.35-12.7-47.38-17.8-72.5-16.63-18.26.85-36.51,5.02-51.65,14-15.15,8.98-26.94,23.09-30.22,39.39-2.12,10.57-.68,21.53,1.23,32.23,2.71,15.2,7.19,31.58,20.48,41.34,8.25,6.06,18.79,8.68,28.96,11.18,10.18,2.5,20.7,5.2,28.84,11.39,11.58,8.81,9.44,18.49,9.48,30.28-.15,16.39,1.68,32.94,2.92,49.46,1.19,15.77,2.16,31.25,1.99,47.26.21,15.5-2.17,35.36-22.18,38.44-42.09,2.98-85.44-1.79-127.79-1.69-14.94-.47-30.34.17-45.17-1.66C2.89,423.69-.28,404.48.08,384.51c.63-14.24-4.03-36.77,14.99-41.57,8.57-2.13,21.38-.26,33.66.27,17.47-.28,44.1,5.62,57.96-1.35,34.07-21.44-17.13-50.38-32.94-57.11-16.89-7.18-32.29-18.49-42.66-33.65-9.99-14.61-14.93-32.12-17.66-49.61-9.42-60.4,9.17-127.68,57.61-164.97C98.17,15.65,132.33,5.52,166.4,2.17c85.48-8.4,196.9,5.04,246.47,84.86,27.64,44.51,53.79,100.58,30.91,149.66-17.28,32.04-49.37,54.36-85.87,66-2.32.74-4.69,1.51-6.56,2.94-5.05,3.88-4.74,10.98-4.01,17.06.81,6.75,1.62,13.49,2.42,20.24.1.8.2,1.62.34,2.42Z"/></svg>